# Blender v2.71 (sub 0) OBJ File: ''
# www.blender.org
mtllib arrow.mtl
o Arrow
v 1.687617 0.000000 -0.422189
v 1.695855 0.000000 -0.423273
v 1.687617 0.029858 -0.422189
v 1.703531 0.000000 -0.426453
v 1.703531 1.423279 -0.426453
v 1.710122 1.423279 -0.431511
v 1.715180 0.000000 -0.438102
v 1.715180 1.423279 -0.438102
v 1.710122 0.000000 -0.431511
v 1.718360 1.423279 -0.445778
v 1.719444 0.000000 -0.454016
v 1.719444 0.040699 -0.454016
v 1.718360 0.000000 -0.445778
v 1.718360 0.000000 -0.462253
v 1.715180 0.000000 -0.469929
v 1.715180 1.423279 -0.469929
v 1.710122 1.423279 -0.476521
v 1.703531 0.000000 -0.481579
v 1.703531 1.423279 -0.481579
v 1.710122 0.000000 -0.476521
v 1.695855 1.423279 -0.484758
v 1.687617 0.000000 -0.485843
v 1.687617 0.040699 -0.485843
v 1.695855 0.000000 -0.484758
v 1.679380 0.000000 -0.484758
v 1.671704 0.000000 -0.481579
v 1.671704 1.423279 -0.481579
v 1.665112 1.423279 -0.476521
v 1.660054 0.000000 -0.469929
v 1.660054 1.423279 -0.469929
v 1.665112 0.000000 -0.476521
v 1.656875 1.423279 -0.462253
v 1.655790 0.000000 -0.454016
v 1.656875 0.000000 -0.462253
v 1.655790 0.040699 -0.454016
v 1.656875 0.000000 -0.445778
v 1.656875 1.423279 -0.445778
v 1.660054 1.423279 -0.438102
v 1.665112 0.000000 -0.431511
v 1.665112 1.423279 -0.431511
v 1.660054 0.000000 -0.438102
v 1.671704 1.423279 -0.426453
v 1.679380 0.000000 -0.423273
v 1.679380 1.423279 -0.423273
v 1.671704 0.000000 -0.426453
v 1.686264 0.000165 -0.422218
v 1.684913 0.000659 -0.422304
v 1.684913 0.030026 -0.422304
v 1.687617 1.423279 -0.422189
v 1.655790 1.423279 -0.454016
v 1.679380 1.423279 -0.484758
v 1.687617 1.423279 -0.485843
v 1.718360 1.423279 -0.462253
v 1.719444 1.423279 -0.454016
v 1.695855 1.423279 -0.423273
v 1.657077 1.481140 -0.462199
v 1.651703 1.473562 -0.463639
v 1.656000 1.481140 -0.454016
v 1.655417 1.473562 -0.472607
v 1.651703 1.463207 -0.474751
v 1.647560 1.463207 -0.464749
v 1.650436 1.473562 -0.454016
v 1.665260 1.481140 -0.476373
v 1.661326 1.473562 -0.480307
v 1.660236 1.481140 -0.469825
v 1.669026 1.473562 -0.486216
v 1.666882 1.463207 -0.489931
v 1.658293 1.463207 -0.483340
v 1.679434 1.481140 -0.484556
v 1.677994 1.473562 -0.489931
v 1.671808 1.481140 -0.481397
v 1.687617 1.473562 -0.491197
v 1.687617 1.463207 -0.495487
v 1.676884 1.463207 -0.494073
v 1.695800 1.481140 -0.484556
v 1.697240 1.473562 -0.489931
v 1.687617 1.481140 -0.485633
v 1.706208 1.473562 -0.486216
v 1.708353 1.463207 -0.489931
v 1.698351 1.463207 -0.494073
v 1.709974 1.481140 -0.476373
v 1.713909 1.473562 -0.480307
v 1.703426 1.481140 -0.481397
v 1.719818 1.473562 -0.472607
v 1.723532 1.463207 -0.474751
v 1.716941 1.463207 -0.483340
v 1.718157 1.481140 -0.462199
v 1.723532 1.473562 -0.463639
v 1.714999 1.481140 -0.469825
v 1.724799 1.473562 -0.454016
v 1.729088 1.463207 -0.454016
v 1.727675 1.463207 -0.464749
v 1.718157 1.481140 -0.445833
v 1.723532 1.473562 -0.444393
v 1.719235 1.481140 -0.454016
v 1.719818 1.473562 -0.435425
v 1.723532 1.463207 -0.433280
v 1.727675 1.463207 -0.443282
v 1.709974 1.481140 -0.431659
v 1.713909 1.473562 -0.427724
v 1.714999 1.481140 -0.438207
v 1.706208 1.473562 -0.421816
v 1.708353 1.463207 -0.418101
v 1.716941 1.463207 -0.424692
v 1.695800 1.481140 -0.423476
v 1.697240 1.473562 -0.418101
v 1.703426 1.481140 -0.426634
v 1.687617 1.473562 -0.416834
v 1.687617 1.463207 -0.412545
v 1.698351 1.463207 -0.413958
v 1.679434 1.481140 -0.423476
v 1.677994 1.473562 -0.418101
v 1.687617 1.481140 -0.422398
v 1.669026 1.473562 -0.421816
v 1.666882 1.463207 -0.418101
v 1.676884 1.463207 -0.413958
v 1.665260 1.481140 -0.431659
v 1.661326 1.473562 -0.427724
v 1.671808 1.481140 -0.426634
v 1.655417 1.473562 -0.435425
v 1.651703 1.463207 -0.433280
v 1.658293 1.463207 -0.424692
v 1.657077 1.481140 -0.445833
v 1.651703 1.473562 -0.444393
v 1.660236 1.481140 -0.438207
v 1.646146 1.463207 -0.454016
v 1.647560 1.463207 -0.443282
v 1.651703 1.430628 -0.444393
v 1.655417 1.430628 -0.435425
v 1.651703 1.440983 -0.433280
v 1.647560 1.440983 -0.443282
v 1.650436 1.430628 -0.454016
v 1.661326 1.430628 -0.427724
v 1.669026 1.430628 -0.421816
v 1.666882 1.440983 -0.418101
v 1.658293 1.440983 -0.424692
v 1.677994 1.430628 -0.418101
v 1.687617 1.430628 -0.416834
v 1.687617 1.440983 -0.412545
v 1.676884 1.440983 -0.413958
v 1.697240 1.430628 -0.418101
v 1.706208 1.430628 -0.421816
v 1.708353 1.440983 -0.418101
v 1.698351 1.440983 -0.413958
v 1.713909 1.430628 -0.427724
v 1.719818 1.430628 -0.435425
v 1.723532 1.440983 -0.433280
v 1.716941 1.440983 -0.424692
v 1.723532 1.430628 -0.444393
v 1.724799 1.430628 -0.454016
v 1.729088 1.440983 -0.454016
v 1.727675 1.440983 -0.443282
v 1.723532 1.430628 -0.463639
v 1.719818 1.430628 -0.472607
v 1.723532 1.440983 -0.474751
v 1.727675 1.440983 -0.464749
v 1.713909 1.430628 -0.480307
v 1.706208 1.430628 -0.486216
v 1.708353 1.440983 -0.489931
v 1.716941 1.440983 -0.483340
v 1.697240 1.430628 -0.489931
v 1.687617 1.430628 -0.491197
v 1.687617 1.440983 -0.495487
v 1.698351 1.440983 -0.494073
v 1.677994 1.430628 -0.489931
v 1.669026 1.430628 -0.486216
v 1.666882 1.440983 -0.489931
v 1.676884 1.440983 -0.494073
v 1.661326 1.430628 -0.480307
v 1.655417 1.430628 -0.472607
v 1.651703 1.440983 -0.474751
v 1.658293 1.440983 -0.483340
v 1.651703 1.430628 -0.463639
v 1.646146 1.440983 -0.454016
v 1.647560 1.440983 -0.464749
v 1.644683 1.452095 -0.454016
v 1.646146 1.452095 -0.442904
v 1.646146 1.452095 -0.465128
v 1.650436 1.452095 -0.432549
v 1.650436 1.452095 -0.475483
v 1.657259 1.452095 -0.484375
v 1.666150 1.452095 -0.491197
v 1.676505 1.452095 -0.495487
v 1.687617 1.452095 -0.496950
v 1.698729 1.452095 -0.495487
v 1.709084 1.452095 -0.491197
v 1.717976 1.452095 -0.484375
v 1.724799 1.452095 -0.475483
v 1.729088 1.452095 -0.465128
v 1.730551 1.452095 -0.454016
v 1.729088 1.452095 -0.442904
v 1.724799 1.452095 -0.432549
v 1.717976 1.452095 -0.423657
v 1.709084 1.452095 -0.416834
v 1.698729 1.452095 -0.412545
v 1.687617 1.452095 -0.411082
v 1.676505 1.452095 -0.412545
v 1.666150 1.452095 -0.416834
v 1.657259 1.452095 -0.423657
v 1.687617 1.689835 -0.454016
v 1.684913 0.003190 -0.403934
v 1.687617 0.003190 -0.403934
v 1.684913 0.000000 -0.422189
v 1.737976 0.000000 -0.456720
v 1.719444 0.040699 -0.456720
v 1.737976 0.000000 -0.454016
v 1.719444 0.000000 -0.456720
v 1.684913 0.000000 -0.504375
v 1.684913 0.040699 -0.485843
v 1.687617 0.000000 -0.504375
v 1.684913 0.000000 -0.485843
v 1.637259 0.000000 -0.454016
v 1.637259 0.000000 -0.456720
v 1.655790 0.040699 -0.456720
v 1.655790 0.000000 -0.456720
vn 0.130500 0.000000 0.991400
vn 0.382700 0.000000 0.923900
vn 0.608800 0.000000 0.793400
vn 0.793400 0.000000 0.608800
vn 0.923900 0.000000 0.382700
vn 0.991400 0.000000 0.130500
vn 0.991400 0.000000 -0.130500
vn 0.923900 0.000000 -0.382700
vn 0.793400 0.000000 -0.608800
vn 0.608800 0.000000 -0.793400
vn 0.382700 0.000000 -0.923900
vn 0.130500 0.000000 -0.991400
vn -0.130500 0.000000 -0.991400
vn -0.382700 0.000000 -0.923900
vn -0.608800 0.000000 -0.793400
vn -0.793400 0.000000 -0.608800
vn -0.923900 0.000000 -0.382700
vn -0.991400 0.000000 0.130500
vn -0.923900 0.000000 0.382700
vn -0.793400 0.000000 0.608800
vn -0.608800 0.000000 0.793400
vn -0.382700 0.000000 0.923900
vn -0.097100 -0.668600 0.737300
vn -0.142600 -0.221500 0.964700
vn -0.172600 0.000000 0.985000
vn -0.042500 0.000000 0.999100
vn -0.991400 0.000000 -0.130500
vn -0.793300 0.000000 -0.608800
vn -0.608800 0.000000 -0.793300
vn 0.793300 0.000000 -0.608800
vn -0.130500 0.000200 0.991400
vn -0.801600 0.588500 -0.105600
vn -0.747000 0.588500 -0.309400
vn -0.854600 0.379900 -0.354000
vn -0.917100 0.379900 -0.120700
vn -0.801600 0.588500 -0.105500
vn -0.641400 0.588500 -0.492200
vn -0.492200 0.588500 -0.641400
vn -0.563100 0.379900 -0.733900
vn -0.733900 0.379900 -0.563100
vn -0.309400 0.588500 -0.746900
vn -0.105500 0.588500 -0.801600
vn -0.120700 0.379900 -0.917100
vn -0.354000 0.379900 -0.854600
vn 0.105500 0.588500 -0.801600
vn 0.309400 0.588500 -0.746900
vn 0.354000 0.379900 -0.854600
vn 0.120700 0.379900 -0.917100
vn 0.492200 0.588500 -0.641400
vn 0.641400 0.588500 -0.492200
vn 0.733900 0.379900 -0.563100
vn 0.563100 0.379900 -0.733900
vn 0.746900 0.588500 -0.309400
vn 0.801600 0.588500 -0.105500
vn 0.917100 0.379900 -0.120700
vn 0.917100 0.379900 -0.120800
vn 0.854600 0.379900 -0.354000
vn 0.747000 0.588500 -0.309400
vn 0.801600 0.588500 0.105500
vn 0.746900 0.588500 0.309400
vn 0.854600 0.379900 0.354000
vn 0.917100 0.379900 0.120700
vn 0.641400 0.588500 0.492200
vn 0.492200 0.588500 0.641400
vn 0.563100 0.379900 0.733900
vn 0.733900 0.379900 0.563100
vn 0.309400 0.588500 0.746900
vn 0.105500 0.588500 0.801600
vn 0.120700 0.379900 0.917100
vn 0.354000 0.379900 0.854600
vn -0.105500 0.588500 0.801600
vn -0.309400 0.588500 0.746900
vn -0.354000 0.379900 0.854600
vn -0.120700 0.379900 0.917100
vn -0.492200 0.588500 0.641400
vn -0.641400 0.588500 0.492200
vn -0.733900 0.379900 0.563100
vn -0.563100 0.379900 0.733900
vn -0.747000 0.588500 0.309400
vn -0.801600 0.588500 0.105500
vn -0.917100 0.379900 0.120700
vn -0.854600 0.379900 0.354000
vn -0.746900 0.588500 0.309400
vn -0.803700 -0.585600 0.105800
vn -0.748900 -0.585600 0.310200
vn -0.854600 -0.379900 0.354000
vn -0.917100 -0.379900 0.120700
vn -0.643100 -0.585600 0.493500
vn -0.493500 -0.585600 0.643100
vn -0.563100 -0.379900 0.733900
vn -0.733900 -0.379900 0.563100
vn -0.310200 -0.585600 0.748900
vn -0.105800 -0.585600 0.803700
vn -0.120700 -0.379900 0.917100
vn -0.354000 -0.379900 0.854600
vn 0.105800 -0.585600 0.803700
vn 0.310200 -0.585600 0.748900
vn 0.354000 -0.379900 0.854600
vn 0.120700 -0.379900 0.917100
vn 0.493500 -0.585600 0.643100
vn 0.643100 -0.585600 0.493500
vn 0.733900 -0.379900 0.563100
vn 0.563100 -0.379900 0.733900
vn 0.748900 -0.585600 0.310200
vn 0.803700 -0.585600 0.105800
vn 0.917100 -0.379900 0.120700
vn 0.917100 -0.379900 0.120800
vn 0.854600 -0.379900 0.354000
vn 0.803700 -0.585600 -0.105800
vn 0.748900 -0.585600 -0.310200
vn 0.854600 -0.379900 -0.354000
vn 0.917100 -0.379900 -0.120700
vn 0.643100 -0.585600 -0.493500
vn 0.493500 -0.585600 -0.643100
vn 0.563100 -0.379900 -0.733900
vn 0.733900 -0.379900 -0.563100
vn 0.310200 -0.585600 -0.748900
vn 0.105800 -0.585600 -0.803700
vn 0.120700 -0.379900 -0.917100
vn 0.354000 -0.379900 -0.854600
vn -0.105800 -0.585600 -0.803700
vn -0.310200 -0.585600 -0.748900
vn -0.354000 -0.379900 -0.854600
vn -0.120700 -0.379900 -0.917100
vn -0.493500 -0.585600 -0.643100
vn -0.643100 -0.585600 -0.493500
vn -0.733900 -0.379900 -0.563100
vn -0.563100 -0.379900 -0.733900
vn -0.748900 -0.585600 -0.310200
vn -0.803700 -0.585600 -0.105800
vn -0.917100 -0.379900 -0.120700
vn -0.917100 -0.379900 -0.120800
vn -0.854600 -0.379900 -0.354000
vn -0.983100 0.129400 0.129400
vn -0.983100 -0.129400 0.129400
vn -0.983100 0.129400 -0.129400
vn -0.983100 -0.129400 -0.129400
vn -0.916100 -0.129400 0.379500
vn -0.916100 0.129400 0.379500
vn -0.309400 0.588500 0.747000
vn 0.747000 0.588500 0.309400
vn 0.309400 0.588500 -0.747000
vn 0.493400 -0.585600 -0.643100
vn -0.746900 0.588500 -0.309400
vn -0.916100 0.129400 -0.379500
vn -0.916100 -0.129400 -0.379500
vn -0.786700 -0.129400 -0.603600
vn -0.603700 -0.129400 -0.786700
vn -0.786700 0.129400 -0.603600
vn -0.603700 0.129400 -0.786700
vn -0.603600 -0.129400 -0.786700
vn -0.603600 0.129400 -0.786700
vn -0.379500 -0.129400 -0.916100
vn -0.129400 -0.129400 -0.983100
vn -0.379500 0.129400 -0.916100
vn -0.129400 0.129400 -0.983100
vn 0.129400 -0.129400 -0.983100
vn 0.379500 -0.129400 -0.916100
vn 0.129400 0.129400 -0.983100
vn 0.379500 0.129400 -0.916100
vn 0.603600 -0.129400 -0.786700
vn 0.603700 -0.129400 -0.786700
vn 0.786700 -0.129400 -0.603600
vn 0.603700 0.129400 -0.786700
vn 0.603600 0.129400 -0.786700
vn 0.786700 0.129400 -0.603600
vn 0.916100 -0.129400 -0.379500
vn 0.916100 -0.129500 -0.379500
vn 0.983100 -0.129400 -0.129400
vn 0.917100 -0.379900 -0.120800
vn 0.916100 0.129400 -0.379500
vn 0.983100 0.129400 -0.129400
vn 0.917100 0.379900 0.120800
vn 0.983100 -0.129400 0.129400
vn 0.983100 -0.129500 0.129400
vn 0.916100 -0.129500 0.379500
vn 0.983100 0.129400 0.129400
vn 0.983100 0.129500 0.129400
vn 0.916100 0.129400 0.379500
vn 0.916100 -0.129400 0.379500
vn 0.786700 -0.129400 0.603600
vn 0.603700 -0.129400 0.786700
vn 0.786700 0.129400 0.603600
vn 0.603600 0.129400 0.786700
vn 0.603600 -0.129400 0.786700
vn 0.379500 -0.129400 0.916100
vn 0.129400 -0.129400 0.983100
vn 0.379500 0.129400 0.916100
vn 0.129400 0.129400 0.983100
vn -0.129400 -0.129400 0.983100
vn -0.379500 -0.129400 0.916100
vn -0.129400 0.129400 0.983100
vn -0.379500 0.129400 0.916100
vn -0.603700 -0.129400 0.786700
vn -0.786700 -0.129400 0.603600
vn -0.603700 0.129400 0.786700
vn -0.603600 0.129400 0.786700
vn -0.786700 0.129400 0.603600
vn -0.980400 0.148500 0.129100
vn -0.784500 0.148500 0.602000
vn -0.378400 0.148500 0.913600
vn 0.129100 0.148500 0.980400
vn 0.602000 0.148500 0.784600
vn 0.913600 0.148500 0.378400
vn 0.980400 0.148500 -0.129100
vn 0.784500 0.148500 -0.602000
vn 0.378400 0.148500 -0.913600
vn -0.129100 0.148500 -0.980400
vn -0.602000 0.148500 -0.784500
vn -0.913600 0.148500 -0.378400
vn -0.980400 0.148500 -0.129100
vn -0.784500 0.148500 -0.602000
vn -0.378400 0.148500 -0.913600
vn 0.129100 0.148500 -0.980400
vn 0.602000 0.148500 -0.784500
vn 0.913600 0.148500 -0.378400
vn 0.980400 0.148500 0.129100
vn 0.784500 0.148500 0.602000
vn 0.378400 0.148500 0.913600
vn -0.129100 0.148500 0.980400
vn -0.602000 0.148500 0.784600
vn -0.913600 0.148500 0.378400
vn 0.000000 -1.000000 0.000000
vn 0.000000 0.564900 0.825200
vn -1.000000 0.000000 0.000000
vn 0.000000 -0.172100 -0.985100
vn 0.000000 -0.172000 -0.985100
vn 0.000000 -0.985100 0.172100
vn 1.000000 0.000000 0.000000
vn 0.910100 0.414400 0.000000
vn 0.000000 0.000000 -1.000000
vn 0.000000 0.000000 1.000000
vn 0.000000 0.414400 -0.910100
vn -0.910100 0.414400 0.000000
usemtl None
s off
f 1//1 2//1 3//1
f 4//2 5//2 2//2
f 5//3 4//3 6//3
f 7//4 8//4 9//4
f 8//5 7//5 10//5
f 11//6 12//6 13//6
f 11//7 14//7 12//7
f 15//8 16//8 14//8
f 16//9 15//9 17//9
f 18//10 19//10 20//10
f 19//11 18//11 21//11
f 22//12 23//12 24//12
f 22//13 25//13 23//13
f 26//14 27//14 25//14
f 27//15 26//15 28//15
f 29//16 30//16 31//16
f 30//17 29//17 32//17
f 36//18 37//18 33//18
f 37//19 36//19 38//19
f 39//20 40//20 41//20
f 40//21 39//21 42//21
f 43//22 44//22 45//22
f 1//23 46//23 43//23
f 46//24 47//24 43//24
f 47//25 48//25 43//25
f 3//26 49//26 48//26
f 32//27 34//27 50//27
f 34//17 32//17 29//17
f 30//28 28//28 31//28
f 31//29 28//29 26//29
f 27//14 51//14 25//14
f 25//13 51//13 23//13
f 51//13 52//13 23//13
f 19//10 17//10 20//10
f 20//30 17//30 15//30
f 16//8 53//8 14//8
f 14//7 53//7 12//7
f 53//7 54//7 12//7
f 8//4 6//4 9//4
f 9//3 6//3 4//3
f 5//2 55//2 2//2
f 2//1 55//1 3//1
f 49//31 44//31 48//31
f 44//22 42//22 45//22
f 45//21 42//21 39//21
f 40//20 38//20 41//20
f 41//19 38//19 36//19
f 37//18 50//18 33//18
f 33//27 50//27 34//27
f 18//11 24//11 21//11
f 52//12 21//12 23//12
f 7//5 13//5 10//5
f 54//6 10//6 12//6
f 49//1 3//1 55//1
f 44//25 43//25 48//25
f 13//6 12//6 10//6
f 24//12 23//12 21//12
f 56//32 57//32 58//32
f 57//33 56//33 59//33
f 57//34 59//34 60//34
f 57//34 60//34 61//34
f 57//35 61//35 62//35
f 57//36 62//36 58//36
f 63//37 64//37 65//37
f 64//38 63//38 66//38
f 64//39 66//39 67//39
f 64//39 67//39 68//39
f 64//40 68//40 59//40
f 64//37 59//37 65//37
f 69//41 70//41 71//41
f 70//42 69//42 72//42
f 70//43 72//43 73//43
f 70//43 73//43 74//43
f 70//44 74//44 66//44
f 70//41 66//41 71//41
f 75//45 76//45 77//45
f 76//46 75//46 78//46
f 76//47 78//47 79//47
f 76//47 79//47 80//47
f 76//48 80//48 72//48
f 76//45 72//45 77//45
f 81//49 82//49 83//49
f 82//50 81//50 84//50
f 82//51 84//51 85//51
f 82//51 85//51 86//51
f 82//52 86//52 78//52
f 82//49 78//49 83//49
f 87//53 88//53 89//53
f 88//54 87//54 90//54
f 88//55 90//55 91//55
f 88//56 91//56 92//56
f 88//57 92//57 84//57
f 88//58 84//58 89//58
f 93//59 94//59 95//59
f 94//60 93//60 96//60
f 94//61 96//61 97//61
f 94//61 97//61 98//61
f 94//62 98//62 90//62
f 94//59 90//59 95//59
f 99//63 100//63 101//63
f 100//64 99//64 102//64
f 100//65 102//65 103//65
f 100//65 103//65 104//65
f 100//66 104//66 96//66
f 100//63 96//63 101//63
f 105//67 106//67 107//67
f 106//68 105//68 108//68
f 106//69 108//69 109//69
f 106//69 109//69 110//69
f 106//70 110//70 102//70
f 106//67 102//67 107//67
f 111//71 112//71 113//71
f 112//72 111//72 114//72
f 112//73 114//73 115//73
f 112//73 115//73 116//73
f 112//74 116//74 108//74
f 112//71 108//71 113//71
f 117//75 118//75 119//75
f 118//76 117//76 120//76
f 118//77 120//77 121//77
f 118//77 121//77 122//77
f 118//78 122//78 114//78
f 118//75 114//75 119//75
f 123//79 124//79 125//79
f 124//80 123//80 62//80
f 124//81 62//81 126//81
f 124//81 126//81 127//81
f 124//82 127//82 120//82
f 124//83 120//83 125//83
f 37//84 128//84 50//84
f 128//85 37//85 129//85
f 128//86 129//86 130//86
f 128//86 130//86 131//86
f 128//87 131//87 132//87
f 128//84 132//84 50//84
f 40//88 133//88 38//88
f 133//89 40//89 134//89
f 133//90 134//90 135//90
f 133//90 135//90 136//90
f 133//91 136//91 129//91
f 133//88 129//88 38//88
f 44//92 137//92 42//92
f 137//93 44//93 138//93
f 137//94 138//94 139//94
f 137//94 139//94 140//94
f 137//95 140//95 134//95
f 137//92 134//92 42//92
f 55//96 141//96 49//96
f 141//97 55//97 142//97
f 141//98 142//98 143//98
f 141//98 143//98 144//98
f 141//99 144//99 138//99
f 141//96 138//96 49//96
f 6//100 145//100 5//100
f 145//101 6//101 146//101
f 145//102 146//102 147//102
f 145//102 147//102 148//102
f 145//103 148//103 142//103
f 145//100 142//100 5//100
f 10//104 149//104 8//104
f 149//105 10//105 150//105
f 149//106 150//106 151//106
f 149//107 151//107 152//107
f 149//108 152//108 146//108
f 149//104 146//104 8//104
f 53//109 153//109 54//109
f 153//110 53//110 154//110
f 153//111 154//111 155//111
f 153//111 155//111 156//111
f 153//112 156//112 150//112
f 153//109 150//109 54//109
f 17//113 157//113 16//113
f 157//114 17//114 158//114
f 157//115 158//115 159//115
f 157//115 159//115 160//115
f 157//116 160//116 154//116
f 157//113 154//113 16//113
f 21//117 161//117 19//117
f 161//118 21//118 162//118
f 161//119 162//119 163//119
f 161//119 163//119 164//119
f 161//120 164//120 158//120
f 161//117 158//117 19//117
f 51//121 165//121 52//121
f 165//122 51//122 166//122
f 165//123 166//123 167//123
f 165//123 167//123 168//123
f 165//124 168//124 162//124
f 165//121 162//121 52//121
f 28//125 169//125 27//125
f 169//126 28//126 170//126
f 169//127 170//127 171//127
f 169//127 171//127 172//127
f 169//128 172//128 166//128
f 169//125 166//125 27//125
f 32//129 173//129 30//129
f 173//130 32//130 132//130
f 173//131 132//131 174//131
f 173//132 174//132 175//132
f 173//133 175//133 170//133
f 173//129 170//129 30//129
f 50//130 132//130 32//130
f 58//80 62//80 123//80
f 126//134 176//134 127//134
f 62//35 61//35 126//35
f 176//135 174//135 177//135
f 176//134 177//134 127//134
f 176//136 126//136 178//136
f 176//137 178//137 175//137
f 176//137 175//137 174//137
f 177//135 174//135 131//135
f 177//138 131//138 179//138
f 177//139 179//139 121//139
f 177//139 121//139 127//139
f 131//87 174//87 132//87
f 125//76 120//76 117//76
f 38//85 129//85 37//85
f 119//140 114//140 111//140
f 42//89 134//89 40//89
f 113//68 108//68 105//68
f 49//93 138//93 44//93
f 107//64 102//64 99//64
f 5//97 142//97 55//97
f 101//141 96//141 93//141
f 8//101 146//101 6//101
f 95//54 90//54 87//54
f 54//105 150//105 10//105
f 89//50 84//50 81//50
f 16//110 154//110 53//110
f 83//142 78//142 75//142
f 19//143 158//143 17//143
f 77//42 72//42 69//42
f 52//118 162//118 21//118
f 71//38 66//38 63//38
f 27//122 166//122 51//122
f 65//144 59//144 56//144
f 30//126 170//126 28//126
f 126//136 61//136 178//136
f 178//145 61//145 180//145
f 178//146 180//146 171//146
f 178//146 171//146 175//146
f 170//133 175//133 171//133
f 61//145 60//145 180//145
f 59//40 68//40 60//40
f 172//147 171//147 180//147
f 172//147 180//147 181//147
f 172//148 181//148 167//148
f 172//128 167//128 166//128
f 180//149 60//149 181//149
f 60//149 68//149 181//149
f 181//150 68//150 182//150
f 181//151 182//151 167//151
f 68//152 67//152 182//152
f 66//44 74//44 67//44
f 168//153 167//153 182//153
f 168//153 182//153 183//153
f 168//154 183//154 163//154
f 168//124 163//124 162//124
f 182//155 67//155 183//155
f 67//155 74//155 183//155
f 183//156 74//156 184//156
f 183//154 184//154 163//154
f 74//156 73//156 184//156
f 72//48 80//48 73//48
f 164//157 163//157 184//157
f 164//157 184//157 185//157
f 164//158 185//158 159//158
f 164//120 159//120 158//120
f 184//159 73//159 185//159
f 73//159 80//159 185//159
f 185//160 80//160 186//160
f 185//158 186//158 159//158
f 80//160 79//160 186//160
f 78//52 86//52 79//52
f 160//161 159//161 186//161
f 160//162 186//162 187//162
f 160//163 187//163 155//163
f 160//116 155//116 154//116
f 186//164 79//164 187//164
f 79//165 86//165 187//165
f 187//166 86//166 188//166
f 187//163 188//163 155//163
f 86//166 85//166 188//166
f 84//57 92//57 85//57
f 156//167 155//167 188//167
f 156//168 188//168 189//168
f 156//169 189//169 151//169
f 156//170 151//170 150//170
f 188//171 85//171 189//171
f 85//171 92//171 189//171
f 189//172 92//172 190//172
f 189//169 190//169 151//169
f 92//172 91//172 190//172
f 90//173 98//173 91//173
f 152//174 151//174 190//174
f 152//175 190//175 191//175
f 152//176 191//176 147//176
f 152//108 147//108 146//108
f 190//177 91//177 191//177
f 91//178 98//178 191//178
f 191//179 98//179 192//179
f 191//180 192//180 147//180
f 98//179 97//179 192//179
f 96//66 104//66 97//66
f 148//181 147//181 192//181
f 148//181 192//181 193//181
f 148//182 193//182 143//182
f 148//103 143//103 142//103
f 192//183 97//183 193//183
f 97//183 104//183 193//183
f 193//184 104//184 194//184
f 193//185 194//185 143//185
f 104//184 103//184 194//184
f 102//70 110//70 103//70
f 144//186 143//186 194//186
f 144//186 194//186 195//186
f 144//187 195//187 139//187
f 144//99 139//99 138//99
f 194//188 103//188 195//188
f 103//188 110//188 195//188
f 195//189 110//189 196//189
f 195//187 196//187 139//187
f 110//189 109//189 196//189
f 108//74 116//74 109//74
f 140//190 139//190 196//190
f 140//190 196//190 197//190
f 140//191 197//191 135//191
f 140//95 135//95 134//95
f 196//192 109//192 197//192
f 109//192 116//192 197//192
f 197//193 116//193 198//193
f 197//191 198//191 135//191
f 116//193 115//193 198//193
f 114//78 122//78 115//78
f 136//194 135//194 198//194
f 136//194 198//194 199//194
f 136//195 199//195 130//195
f 136//91 130//91 129//91
f 198//196 115//196 199//196
f 115//197 122//197 199//197
f 121//198 179//198 122//198
f 127//82 121//82 120//82
f 199//198 122//198 179//198
f 199//195 179//195 130//195
f 131//138 130//138 179//138
f 123//199 200//199 58//199
f 117//200 200//200 125//200
f 111//201 200//201 119//201
f 105//202 200//202 113//202
f 99//203 200//203 107//203
f 93//204 200//204 101//204
f 87//205 200//205 95//205
f 81//206 200//206 89//206
f 75//207 200//207 83//207
f 69//208 200//208 77//208
f 63//209 200//209 71//209
f 56//210 200//210 65//210
f 56//211 58//211 200//211
f 65//212 200//212 63//212
f 71//213 200//213 69//213
f 77//214 200//214 75//214
f 83//215 200//215 81//215
f 89//216 200//216 87//216
f 95//217 200//217 93//217
f 101//218 200//218 99//218
f 107//219 200//219 105//219
f 113//220 200//220 111//220
f 119//221 200//221 117//221
f 125//222 200//222 123//222
f 13//223 36//223 11//223
f 36//223 13//223 41//223
f 9//223 39//223 7//223
f 39//223 9//223 45//223
f 2//223 43//223 4//223
f 2//223 1//223 43//223
f 43//223 45//223 4//223
f 4//223 45//223 9//223
f 39//223 41//223 7//223
f 7//223 41//223 13//223
f 36//223 33//223 11//223
f 11//223 33//223 14//223
f 29//223 15//223 34//223
f 15//223 29//223 20//223
f 26//223 18//223 31//223
f 18//223 26//223 24//223
f 22//223 24//223 25//223
f 25//223 24//223 26//223
f 18//223 20//223 31//223
f 31//223 20//223 29//223
f 15//223 14//223 34//223
f 34//223 14//223 33//223
f 48//224 201//224 3//224
f 201//224 202//224 3//224
f 48//225 47//225 201//225
f 47//225 203//225 201//225
f 47//226 46//226 203//226
f 46//227 1//227 203//227
f 1//228 202//228 203//228
f 202//228 201//228 203//228
f 1//229 3//229 202//229
f 204//230 205//230 206//230
f 205//230 12//230 206//230
f 205//225 207//225 12//225
f 207//225 11//225 12//225
f 207//223 204//223 11//223
f 204//223 206//223 11//223
f 205//231 204//231 207//231
f 11//232 206//232 12//232
f 208//233 209//233 210//233
f 209//233 23//233 210//233
f 209//232 211//232 23//232
f 211//232 22//232 23//232
f 211//223 208//223 22//223
f 208//223 210//223 22//223
f 209//225 208//225 211//225
f 22//229 210//229 23//229
f 212//234 35//234 213//234
f 35//234 214//234 213//234
f 35//229 33//229 214//229
f 33//229 215//229 214//229
f 33//223 212//223 215//223
f 212//223 213//223 215//223
f 35//232 212//232 33//232
f 215//231 213//231 214//231
